<svg width="284" height="50" viewBox="0 0 284 50" fill="none" xmlns="http://www.w3.org/2000/svg">
    <path
            d="M75.6017 19.34C75.4808 18.2079 74.9709 17.3263 74.0721 16.6955C73.1819 16.0646 72.0239 15.7491 70.5979 15.7491C69.5954 15.7491 68.7355 15.9004 68.0182 16.2029C67.3009 16.5053 66.7521 16.9158 66.3718 17.4344C65.9916 17.9529 65.7971 18.5449 65.7885 19.2104C65.7885 19.7635 65.9138 20.2431 66.1644 20.6493C66.4237 21.0555 66.7737 21.4012 67.2145 21.6864C67.6552 21.9629 68.1435 22.1962 68.6793 22.3864C69.2151 22.5765 69.7553 22.7364 70.2997 22.866L72.7887 23.4883C73.7912 23.7216 74.7548 24.037 75.6795 24.4346C76.6129 24.8321 77.4469 25.3334 78.1815 25.9383C78.9247 26.5433 79.5124 27.2736 79.9445 28.1291C80.3766 28.9847 80.5926 29.9872 80.5926 31.1366C80.5926 32.6922 80.1951 34.062 79.4 35.246C78.6049 36.4214 77.4555 37.3418 75.9518 38.0072C74.4566 38.664 72.6461 38.9924 70.5201 38.9924C68.4546 38.9924 66.6613 38.6727 65.1403 38.0332C63.6279 37.3936 62.4439 36.4603 61.5883 35.2331C60.7414 34.0059 60.2834 32.5108 60.2142 30.7477H64.9459C65.015 31.6725 65.3002 32.4416 65.8014 33.0552C66.3027 33.6688 66.9552 34.1269 67.7589 34.4293C68.5713 34.7318 69.4787 34.8831 70.4812 34.8831C71.5269 34.8831 72.443 34.7275 73.2295 34.4164C74.0245 34.0966 74.6468 33.6559 75.0962 33.0941C75.5456 32.5237 75.7746 31.8583 75.7832 31.0978C75.7746 30.4064 75.5715 29.836 75.174 29.3866C74.7764 28.9286 74.219 28.5483 73.5017 28.2458C72.793 27.9347 71.9634 27.6581 71.0127 27.4162L67.9923 26.6384C65.8058 26.0766 64.0773 25.2254 62.8069 24.0846C61.5451 22.9352 60.9143 21.4098 60.9143 19.5085C60.9143 17.9443 61.3377 16.5745 62.1847 15.3991C63.0402 14.2238 64.2026 13.312 65.6718 12.6639C67.141 12.007 68.8046 11.6786 70.6627 11.6786C72.5467 11.6786 74.1974 12.007 75.6147 12.6639C77.0407 13.312 78.1599 14.2151 78.9722 15.3732C79.7846 16.5226 80.2037 17.8449 80.2297 19.34H75.6017Z"
            fill="white"/>
    <path
            d="M89.3656 26.9236V38.5906H84.6729V12.0416H89.2619V22.0623H89.4952C89.9619 20.9388 90.6835 20.053 91.6601 19.4048C92.6453 18.748 93.8985 18.4196 95.4195 18.4196C96.8022 18.4196 98.0078 18.7091 99.0363 19.2881C100.065 19.8672 100.86 20.7141 101.422 21.829C101.992 22.9438 102.277 24.305 102.277 25.9124V38.5906H97.5844V26.6384C97.5844 25.2988 97.2387 24.2574 96.5473 23.5142C95.8646 22.7623 94.9053 22.3864 93.6694 22.3864C92.8398 22.3864 92.0965 22.5679 91.4397 22.9308C90.7916 23.2852 90.2817 23.7994 89.9101 24.4735C89.5471 25.1476 89.3656 25.9643 89.3656 26.9236Z"
            fill="white"/>
    <path
            d="M107.061 38.5906V18.6789H111.753V38.5906H107.061ZM109.42 15.8528C108.677 15.8528 108.037 15.6065 107.501 15.1139C106.966 14.6127 106.698 14.012 106.698 13.312C106.698 12.6034 106.966 12.0027 107.501 11.5101C108.037 11.0089 108.677 10.7582 109.42 10.7582C110.172 10.7582 110.811 11.0089 111.338 11.5101C111.874 12.0027 112.142 12.6034 112.142 13.312C112.142 14.012 111.874 14.6127 111.338 15.1139C110.811 15.6065 110.172 15.8528 109.42 15.8528Z"
            fill="white"/>
    <path
            d="M126.664 18.6789V22.3086H114.894V18.6789H126.664ZM117.836 38.5906V16.7992C117.836 15.4596 118.113 14.3448 118.666 13.4546C119.228 12.5645 119.98 11.899 120.922 11.4583C121.864 11.0175 122.909 10.7971 124.059 10.7971C124.871 10.7971 125.593 10.8619 126.224 10.9916C126.855 11.1212 127.321 11.2379 127.624 11.3416L126.69 14.9713C126.492 14.9108 126.241 14.8503 125.938 14.7898C125.636 14.7207 125.299 14.6861 124.927 14.6861C124.054 14.6861 123.437 14.8979 123.074 15.3213C122.719 15.7362 122.542 16.3325 122.542 17.1103V38.5906H117.836Z"
            fill="white"/>
    <path
            d="M140.282 18.6789V22.3086H128.836V18.6789H140.282ZM131.662 13.9083H136.355V32.6015C136.355 33.2324 136.45 33.7164 136.64 34.0534C136.839 34.3818 137.098 34.6065 137.418 34.7275C137.737 34.8485 138.092 34.909 138.481 34.909C138.774 34.909 139.042 34.8874 139.284 34.8442C139.535 34.801 139.725 34.7621 139.855 34.7275L140.645 38.3961C140.395 38.4826 140.036 38.5776 139.569 38.6813C139.111 38.785 138.55 38.8455 137.884 38.8628C136.709 38.8974 135.65 38.7202 134.708 38.3313C133.766 37.9338 133.019 37.3202 132.466 36.4905C131.921 35.6609 131.653 34.6238 131.662 33.3793V13.9083Z"
            fill="white"/>
    <path
            d="M167.139 20.9993H162.291C162.153 20.2042 161.898 19.4999 161.526 18.8863C161.155 18.264 160.692 17.7368 160.139 17.3047C159.586 16.8726 158.955 16.5485 158.246 16.3325C157.546 16.1078 156.79 15.9954 155.978 15.9954C154.535 15.9954 153.256 16.3584 152.141 17.0844C151.026 17.8017 150.153 18.856 149.522 20.2474C148.891 21.6302 148.576 23.3197 148.576 25.3161C148.576 27.347 148.891 29.0582 149.522 30.4496C150.162 31.8323 151.034 32.8781 152.141 33.5867C153.256 34.2867 154.53 34.6368 155.965 34.6368C156.76 34.6368 157.503 34.533 158.195 34.3256C158.895 34.1096 159.521 33.7941 160.074 33.3793C160.636 32.9645 161.107 32.4546 161.487 31.8496C161.876 31.2447 162.144 30.5533 162.291 29.7755L167.139 29.8014C166.958 31.0632 166.565 32.2472 165.96 33.3534C165.363 34.4596 164.581 35.4362 163.613 36.2831C162.645 37.1214 161.513 37.7782 160.217 38.2535C158.921 38.7202 157.482 38.9536 155.9 38.9536C153.567 38.9536 151.484 38.4134 149.652 37.3331C147.82 36.2529 146.376 34.6929 145.322 32.6534C144.268 30.6138 143.74 28.168 143.74 25.3161C143.74 22.4555 144.272 20.0098 145.335 17.9788C146.398 15.9393 147.845 14.3793 149.678 13.2991C151.51 12.2188 153.584 11.6786 155.9 11.6786C157.378 11.6786 158.752 11.8861 160.022 12.3009C161.293 12.7157 162.425 13.325 163.419 14.1287C164.413 14.9238 165.229 15.9004 165.869 17.0584C166.517 18.2079 166.941 19.5215 167.139 20.9993Z"
            fill="white"/>
    <path
            d="M180.022 38.9795C178.077 38.9795 176.392 38.5517 174.966 37.6961C173.54 36.8405 172.434 35.6436 171.647 34.1053C170.869 32.5669 170.481 30.7694 170.481 28.7125C170.481 26.6556 170.869 24.8537 171.647 23.3068C172.434 21.7598 173.54 20.5585 174.966 19.703C176.392 18.8474 178.077 18.4196 180.022 18.4196C181.966 18.4196 183.651 18.8474 185.077 19.703C186.503 20.5585 187.605 21.7598 188.383 23.3068C189.169 24.8537 189.563 26.6556 189.563 28.7125C189.563 30.7694 189.169 32.5669 188.383 34.1053C187.605 35.6436 186.503 36.8405 185.077 37.6961C183.651 38.5517 181.966 38.9795 180.022 38.9795ZM180.048 35.2201C181.102 35.2201 181.983 34.9306 182.692 34.3516C183.401 33.7639 183.928 32.9774 184.274 31.9922C184.628 31.007 184.805 29.9094 184.805 28.6995C184.805 27.481 184.628 26.3791 184.274 25.3939C183.928 24.4 183.401 23.6093 182.692 23.0216C181.983 22.4339 181.102 22.1401 180.048 22.1401C178.967 22.1401 178.068 22.4339 177.351 23.0216C176.643 23.6093 176.111 24.4 175.757 25.3939C175.411 26.3791 175.238 27.481 175.238 28.6995C175.238 29.9094 175.411 31.007 175.757 31.9922C176.111 32.9774 176.643 33.7639 177.351 34.3516C178.068 34.9306 178.967 35.2201 180.048 35.2201Z"
            fill="white"/>
    <path
            d="M198.238 26.9236V38.5906H193.546V18.6789H198.031V22.0623H198.264C198.722 20.9474 199.453 20.0616 200.455 19.4048C201.466 18.748 202.715 18.4196 204.202 18.4196C205.576 18.4196 206.773 18.7134 207.792 19.3011C208.821 19.8888 209.616 20.74 210.178 21.8549C210.748 22.9697 211.029 24.3222 211.02 25.9124V38.5906H206.328V26.6384C206.328 25.3075 205.982 24.2661 205.29 23.5142C204.608 22.7623 203.661 22.3864 202.452 22.3864C201.63 22.3864 200.9 22.5679 200.261 22.9308C199.63 23.2852 199.133 23.7994 198.77 24.4735C198.416 25.1476 198.238 25.9643 198.238 26.9236Z"
            fill="white"/>
    <path
            d="M225.734 18.6789V22.3086H214.287V18.6789H225.734ZM217.113 13.9083H221.806V32.6015C221.806 33.2324 221.901 33.7164 222.091 34.0534C222.29 34.3818 222.549 34.6065 222.869 34.7275C223.189 34.8485 223.543 34.909 223.932 34.909C224.226 34.909 224.494 34.8874 224.736 34.8442C224.986 34.801 225.176 34.7621 225.306 34.7275L226.097 38.3961C225.846 38.4826 225.487 38.5776 225.021 38.6813C224.563 38.785 224.001 38.8455 223.335 38.8628C222.16 38.8974 221.101 38.7202 220.159 38.3313C219.217 37.9338 218.47 37.3202 217.917 36.4905C217.372 35.6609 217.104 34.6238 217.113 33.3793V13.9083Z"
            fill="white"/>
    <path
            d="M229.658 38.5906V18.6789H234.208V21.9975H234.416C234.779 20.8481 235.401 19.9622 236.283 19.34C237.173 18.7091 238.188 18.3937 239.329 18.3937C239.588 18.3937 239.878 18.4066 240.198 18.4325C240.526 18.4498 240.798 18.4801 241.014 18.5233V22.8401C240.815 22.771 240.5 22.7105 240.068 22.6586C239.644 22.5981 239.234 22.5679 238.836 22.5679C237.981 22.5679 237.212 22.7537 236.529 23.1253C235.855 23.4883 235.323 23.9938 234.934 24.642C234.546 25.2902 234.351 26.0377 234.351 26.8847V38.5906H229.658Z"
            fill="white"/>
    <path
            d="M251.997 38.9795C250.053 38.9795 248.368 38.5517 246.942 37.6961C245.516 36.8405 244.41 35.6436 243.623 34.1053C242.845 32.5669 242.456 30.7694 242.456 28.7125C242.456 26.6556 242.845 24.8537 243.623 23.3068C244.41 21.7598 245.516 20.5585 246.942 19.703C248.368 18.8474 250.053 18.4196 251.997 18.4196C253.942 18.4196 255.627 18.8474 257.053 19.703C258.479 20.5585 259.581 21.7598 260.359 23.3068C261.145 24.8537 261.539 26.6556 261.539 28.7125C261.539 30.7694 261.145 32.5669 260.359 34.1053C259.581 35.6436 258.479 36.8405 257.053 37.6961C255.627 38.5517 253.942 38.9795 251.997 38.9795ZM252.023 35.2201C253.078 35.2201 253.959 34.9306 254.668 34.3516C255.377 33.7639 255.904 32.9774 256.249 31.9922C256.604 31.007 256.781 29.9094 256.781 28.6995C256.781 27.481 256.604 26.3791 256.249 25.3939C255.904 24.4 255.377 23.6093 254.668 23.0216C253.959 22.4339 253.078 22.1401 252.023 22.1401C250.943 22.1401 250.044 22.4339 249.327 23.0216C248.618 23.6093 248.087 24.4 247.733 25.3939C247.387 26.3791 247.214 27.481 247.214 28.6995C247.214 29.9094 247.387 31.007 247.733 31.9922C248.087 32.9774 248.618 33.7639 249.327 34.3516C250.044 34.9306 250.943 35.2201 252.023 35.2201Z"
            fill="white"/>
    <path d="M270.214 12.0416V38.5906H265.521V12.0416H270.214Z" fill="white"/>
    <path fill-rule="evenodd" clip-rule="evenodd"
          d="M38.7244 0.75824H0V48.9724H38.7244V40.2568C44.3528 37.4247 48.2143 31.596 48.2143 24.8655C48.2143 18.135 44.3528 12.3064 38.7244 9.47431V0.75824ZM38.7244 9.47431C36.4001 8.30474 33.7744 7.6462 30.9949 7.6462C21.4849 7.6462 13.7756 15.3556 13.7756 24.8655C13.7756 34.3755 21.4849 42.0849 30.9949 42.0849C33.7744 42.0849 36.4001 41.4263 38.7244 40.2568V9.47431Z"
          fill="#00C1BF"/>
</svg>
