<svg width="284" height="49" viewBox="0 0 284 49" fill="none" xmlns="http://www.w3.org/2000/svg">
    <path
        d="M75.6017 18.9829C75.4808 17.8507 74.9709 16.9692 74.0721 16.3383C73.1819 15.7075 72.0239 15.392 70.5979 15.392C69.5954 15.392 68.7355 15.5433 68.0182 15.8457C67.3009 16.1482 66.7521 16.5587 66.3718 17.0773C65.9916 17.5958 65.7971 18.1878 65.7885 18.8532C65.7885 19.4063 65.9138 19.886 66.1644 20.2922C66.4237 20.6984 66.7737 21.044 67.2145 21.3292C67.6552 21.6058 68.1435 21.8391 68.6793 22.0293C69.2151 22.2194 69.7553 22.3793 70.2997 22.5089L72.7887 23.1311C73.7912 23.3645 74.7548 23.6799 75.6795 24.0775C76.6129 24.475 77.4469 24.9763 78.1815 25.5812C78.9247 26.1862 79.5124 26.9164 79.9445 27.772C80.3766 28.6276 80.5926 29.6301 80.5926 30.7795C80.5926 32.3351 80.1951 33.7049 79.4 34.8889C78.6049 36.0643 77.4555 36.9847 75.9518 37.6501C74.4566 38.3069 72.6461 38.6353 70.5201 38.6353C68.4546 38.6353 66.6613 38.3156 65.1403 37.676C63.6279 37.0365 62.4439 36.1031 61.5883 34.876C60.7414 33.6488 60.2834 32.1536 60.2142 30.3906H64.9459C65.015 31.3153 65.3002 32.0845 65.8014 32.6981C66.3027 33.3117 66.9552 33.7697 67.7589 34.0722C68.5713 34.3747 69.4787 34.5259 70.4812 34.5259C71.5269 34.5259 72.443 34.3704 73.2295 34.0593C74.0245 33.7395 74.6468 33.2987 75.0962 32.737C75.5456 32.1666 75.7746 31.5012 75.7832 30.7406C75.7746 30.0493 75.5715 29.4789 75.174 29.0295C74.7764 28.5714 74.219 28.1912 73.5017 27.8887C72.793 27.5776 71.9634 27.301 71.0127 27.059L67.9923 26.2812C65.8058 25.7195 64.0773 24.8682 62.8069 23.7275C61.5451 22.578 60.9143 21.0527 60.9143 19.1514C60.9143 17.5871 61.3377 16.2174 62.1847 15.042C63.0402 13.8667 64.2026 12.9549 65.6718 12.3067C67.141 11.6499 68.8046 11.3215 70.6627 11.3215C72.5467 11.3215 74.1974 11.6499 75.6147 12.3067C77.0407 12.9549 78.1599 13.858 78.9722 15.0161C79.7846 16.1655 80.2037 17.4878 80.2297 18.9829H75.6017Z"
        fill="black"/>
    <path
        d="M89.3656 26.5664V38.2335H84.6729V11.6845H89.2619V21.7052H89.4952C89.9619 20.5817 90.6835 19.6959 91.6601 19.0477C92.6453 18.3909 93.8985 18.0625 95.4195 18.0625C96.8022 18.0625 98.0078 18.352 99.0363 18.931C100.065 19.51 100.86 20.357 101.422 21.4718C101.992 22.5867 102.277 23.9478 102.277 25.5553V38.2335H97.5844V26.2812C97.5844 24.9417 97.2387 23.9003 96.5473 23.1571C95.8646 22.4052 94.9053 22.0293 93.6694 22.0293C92.8398 22.0293 92.0965 22.2107 91.4397 22.5737C90.7916 22.9281 90.2817 23.4423 89.9101 24.1164C89.5471 24.7905 89.3656 25.6071 89.3656 26.5664Z"
        fill="black"/>
    <path
        d="M107.061 38.2335V18.3217H111.753V38.2335H107.061ZM109.42 15.4957C108.677 15.4957 108.037 15.2494 107.501 14.7568C106.966 14.2556 106.698 13.6549 106.698 12.9549C106.698 12.2462 106.966 11.6456 107.501 11.153C108.037 10.6517 108.677 10.4011 109.42 10.4011C110.172 10.4011 110.811 10.6517 111.338 11.153C111.874 11.6456 112.142 12.2462 112.142 12.9549C112.142 13.6549 111.874 14.2556 111.338 14.7568C110.811 15.2494 110.172 15.4957 109.42 15.4957Z"
        fill="black"/>
    <path
        d="M126.664 18.3217V21.9515H114.894V18.3217H126.664ZM117.836 38.2335V16.442C117.836 15.1025 118.113 13.9877 118.666 13.0975C119.228 12.2074 119.98 11.5419 120.922 11.1011C121.864 10.6604 122.909 10.44 124.059 10.44C124.871 10.44 125.593 10.5048 126.224 10.6345C126.855 10.7641 127.321 10.8808 127.624 10.9845L126.69 14.6142C126.492 14.5537 126.241 14.4932 125.938 14.4327C125.636 14.3636 125.299 14.329 124.927 14.329C124.054 14.329 123.437 14.5408 123.074 14.9642C122.719 15.3791 122.542 15.9754 122.542 16.7532V38.2335H117.836Z"
        fill="black"/>
    <path
        d="M140.282 18.3217V21.9515H128.836V18.3217H140.282ZM131.662 13.5512H136.355V32.2444C136.355 32.8753 136.45 33.3592 136.64 33.6963C136.839 34.0247 137.098 34.2494 137.418 34.3704C137.737 34.4914 138.092 34.5519 138.481 34.5519C138.774 34.5519 139.042 34.5303 139.284 34.4871C139.535 34.4438 139.725 34.4049 139.855 34.3704L140.645 38.039C140.395 38.1254 140.036 38.2205 139.569 38.3242C139.111 38.4279 138.55 38.4884 137.884 38.5057C136.709 38.5403 135.65 38.3631 134.708 37.9742C133.766 37.5767 133.019 36.9631 132.466 36.1334C131.921 35.3037 131.653 34.2667 131.662 33.0222V13.5512Z"
        fill="black"/>
    <path
        d="M167.139 20.6422H162.291C162.153 19.8471 161.898 19.1427 161.526 18.5292C161.155 17.9069 160.692 17.3797 160.139 16.9476C159.586 16.5155 158.955 16.1914 158.246 15.9754C157.546 15.7507 156.79 15.6383 155.978 15.6383C154.535 15.6383 153.256 16.0013 152.141 16.7272C151.026 17.4445 150.153 18.4989 149.522 19.8903C148.891 21.2731 148.576 22.9626 148.576 24.959C148.576 26.9899 148.891 28.7011 149.522 30.0925C150.162 31.4752 151.034 32.5209 152.141 33.2296C153.256 33.9296 154.53 34.2796 155.965 34.2796C156.76 34.2796 157.503 34.1759 158.195 33.9685C158.895 33.7525 159.521 33.437 160.074 33.0222C160.636 32.6074 161.107 32.0975 161.487 31.4925C161.876 30.8876 162.144 30.1962 162.291 29.4184L167.139 29.4443C166.958 30.7061 166.565 31.8901 165.96 32.9963C165.363 34.1025 164.581 35.079 163.613 35.926C162.645 36.7643 161.513 37.4211 160.217 37.8964C158.921 38.3631 157.482 38.5964 155.9 38.5964C153.567 38.5964 151.484 38.0563 149.652 36.976C147.82 35.8957 146.376 34.3358 145.322 32.2962C144.268 30.2567 143.74 27.8109 143.74 24.959C143.74 22.0984 144.272 19.6526 145.335 17.6217C146.398 15.5821 147.845 14.0222 149.678 12.9419C151.51 11.8617 153.584 11.3215 155.9 11.3215C157.378 11.3215 158.752 11.5289 160.022 11.9438C161.293 12.3586 162.425 12.9679 163.419 13.7716C164.413 14.5667 165.229 15.5433 165.869 16.7013C166.517 17.8507 166.941 19.1644 167.139 20.6422Z"
        fill="black"/>
    <path
        d="M180.022 38.6224C178.077 38.6224 176.392 38.1946 174.966 37.339C173.54 36.4834 172.434 35.2865 171.647 33.7481C170.869 32.2098 170.481 30.4122 170.481 28.3554C170.481 26.2985 170.869 24.4966 171.647 22.9497C172.434 21.4027 173.54 20.2014 174.966 19.3458C176.392 18.4903 178.077 18.0625 180.022 18.0625C181.966 18.0625 183.651 18.4903 185.077 19.3458C186.503 20.2014 187.605 21.4027 188.383 22.9497C189.169 24.4966 189.563 26.2985 189.563 28.3554C189.563 30.4122 189.169 32.2098 188.383 33.7481C187.605 35.2865 186.503 36.4834 185.077 37.339C183.651 38.1946 181.966 38.6224 180.022 38.6224ZM180.048 34.863C181.102 34.863 181.983 34.5735 182.692 33.9944C183.401 33.4068 183.928 32.6203 184.274 31.6351C184.628 30.6499 184.805 29.5523 184.805 28.3424C184.805 27.1239 184.628 26.022 184.274 25.0368C183.928 24.0429 183.401 23.2521 182.692 22.6645C181.983 22.0768 181.102 21.783 180.048 21.783C178.967 21.783 178.068 22.0768 177.351 22.6645C176.643 23.2521 176.111 24.0429 175.757 25.0368C175.411 26.022 175.238 27.1239 175.238 28.3424C175.238 29.5523 175.411 30.6499 175.757 31.6351C176.111 32.6203 176.643 33.4068 177.351 33.9944C178.068 34.5735 178.967 34.863 180.048 34.863Z"
        fill="black"/>
    <path
        d="M198.238 26.5664V38.2335H193.546V18.3217H198.031V21.7052H198.264C198.722 20.5903 199.453 19.7045 200.455 19.0477C201.466 18.3909 202.715 18.0625 204.202 18.0625C205.576 18.0625 206.773 18.3563 207.792 18.944C208.821 19.5317 209.616 20.3829 210.178 21.4978C210.748 22.6126 211.029 23.9651 211.02 25.5553V38.2335H206.328V26.2812C206.328 24.9503 205.982 23.9089 205.29 23.1571C204.608 22.4052 203.661 22.0293 202.452 22.0293C201.63 22.0293 200.9 22.2107 200.261 22.5737C199.63 22.9281 199.133 23.4423 198.77 24.1164C198.416 24.7905 198.238 25.6071 198.238 26.5664Z"
        fill="black"/>
    <path
        d="M225.734 18.3217V21.9515H214.287V18.3217H225.734ZM217.113 13.5512H221.806V32.2444C221.806 32.8753 221.901 33.3592 222.091 33.6963C222.29 34.0247 222.549 34.2494 222.869 34.3704C223.189 34.4914 223.543 34.5519 223.932 34.5519C224.226 34.5519 224.494 34.5303 224.736 34.4871C224.986 34.4438 225.176 34.4049 225.306 34.3704L226.097 38.039C225.846 38.1254 225.487 38.2205 225.021 38.3242C224.563 38.4279 224.001 38.4884 223.335 38.5057C222.16 38.5403 221.101 38.3631 220.159 37.9742C219.217 37.5767 218.47 36.9631 217.917 36.1334C217.372 35.3037 217.104 34.2667 217.113 33.0222V13.5512Z"
        fill="black"/>
    <path
        d="M229.658 38.2335V18.3217H234.208V21.6404H234.416C234.779 20.4909 235.401 19.6051 236.283 18.9829C237.173 18.352 238.188 18.0365 239.329 18.0365C239.588 18.0365 239.878 18.0495 240.198 18.0754C240.526 18.0927 240.798 18.123 241.014 18.1662V22.483C240.815 22.4138 240.5 22.3533 240.068 22.3015C239.644 22.241 239.234 22.2107 238.836 22.2107C237.981 22.2107 237.212 22.3966 236.529 22.7682C235.855 23.1311 235.323 23.6367 234.934 24.2849C234.546 24.9331 234.351 25.6806 234.351 26.5275V38.2335H229.658Z"
        fill="black"/>
    <path
        d="M251.997 38.6224C250.053 38.6224 248.368 38.1946 246.942 37.339C245.516 36.4834 244.41 35.2865 243.623 33.7481C242.845 32.2098 242.456 30.4122 242.456 28.3554C242.456 26.2985 242.845 24.4966 243.623 22.9497C244.41 21.4027 245.516 20.2014 246.942 19.3458C248.368 18.4903 250.053 18.0625 251.997 18.0625C253.942 18.0625 255.627 18.4903 257.053 19.3458C258.479 20.2014 259.581 21.4027 260.359 22.9497C261.145 24.4966 261.539 26.2985 261.539 28.3554C261.539 30.4122 261.145 32.2098 260.359 33.7481C259.581 35.2865 258.479 36.4834 257.053 37.339C255.627 38.1946 253.942 38.6224 251.997 38.6224ZM252.023 34.863C253.078 34.863 253.959 34.5735 254.668 33.9944C255.377 33.4068 255.904 32.6203 256.249 31.6351C256.604 30.6499 256.781 29.5523 256.781 28.3424C256.781 27.1239 256.604 26.022 256.249 25.0368C255.904 24.0429 255.377 23.2521 254.668 22.6645C253.959 22.0768 253.078 21.783 252.023 21.783C250.943 21.783 250.044 22.0768 249.327 22.6645C248.618 23.2521 248.087 24.0429 247.733 25.0368C247.387 26.022 247.214 27.1239 247.214 28.3424C247.214 29.5523 247.387 30.6499 247.733 31.6351C248.087 32.6203 248.618 33.4068 249.327 33.9944C250.044 34.5735 250.943 34.863 252.023 34.863Z"
        fill="black"/>
    <path d="M270.214 11.6845V38.2335H265.521V11.6845H270.214Z" fill="black"/>
    <path fill-rule="evenodd" clip-rule="evenodd"
          d="M38.7244 0.401123H0V48.6153H38.7244V39.8997C44.3528 37.0675 48.2143 31.2389 48.2143 24.5084C48.2143 17.7779 44.3528 11.9493 38.7244 9.1172V0.401123ZM38.7244 9.1172C36.4001 7.94763 33.7744 7.28908 30.9949 7.28908C21.4849 7.28908 13.7756 14.9984 13.7756 24.5084C13.7756 34.0184 21.4849 41.7278 30.9949 41.7278C33.7744 41.7278 36.4001 41.0692 38.7244 39.8997V9.1172Z"
          fill="#00C1BF"/>
</svg>
